<svg xmlns="http://www.w3.org/2000/svg" width="817" height="452" viewBox="0 0 817 452" font-family="JetBrainsMono Nerd Font, JetBrains Mono, monospace" font-size="14.0">
<rect x="0" y="0" width="817" height="452" rx="10" fill="#14141f"/>
<rect x="0" y="0" width="817" height="28" rx="10" fill="#1d1d2b"/>
<rect x="0" y="10" width="817" height="18" fill="#1d1d2b"/>
<circle cx="18.0" cy="14.0" r="5" fill="#ff5f57"/>
<circle cx="36.0" cy="14.0" r="5" fill="#febc2e"/>
<circle cx="54.0" cy="14.0" r="5" fill="#28c840"/>
<text x="408.4" y="18.0" fill="#8a8a9a" font-size="12" text-anchor="middle">pdrive — status</text>
<text x="106.00" y="58.00" fill="#00f0c8" xml:space="preserve">╭──────────╮</text>
<text x="206.80" y="58.00" fill="#3c3c5c" xml:space="preserve">╭────────────╮╭─────────────────╮╭────────────╮</text>
<text x="30.40" y="76.00" fill="#6d49ff" font-weight="bold" xml:space="preserve">pDrive</text>
<text x="106.00" y="76.00" fill="#00f0c8" xml:space="preserve">│</text>
<text x="122.80" y="76.00" fill="#e8e8e8" font-weight="bold" xml:space="preserve">1 Status</text>
<text x="198.40" y="76.00" fill="#00f0c8" xml:space="preserve">│</text>
<text x="206.80" y="76.00" fill="#3c3c5c" xml:space="preserve">│</text>
<text x="223.60" y="76.00" fill="#888899" xml:space="preserve">2 Activity</text>
<text x="316.00" y="76.00" fill="#3c3c5c" xml:space="preserve">││</text>
<text x="341.20" y="76.00" fill="#888899" xml:space="preserve">3 Conflicts (1)</text>
<text x="475.60" y="76.00" fill="#3c3c5c" xml:space="preserve">││</text>
<text x="500.80" y="76.00" fill="#888899" xml:space="preserve">4 Settings</text>
<text x="593.20" y="76.00" fill="#3c3c5c" xml:space="preserve">│</text>
<text x="106.00" y="94.00" fill="#00f0c8" xml:space="preserve">╰──────────╯</text>
<text x="206.80" y="94.00" fill="#3c3c5c" xml:space="preserve">╰────────────╯╰─────────────────╯╰────────────╯</text>
<text x="97.60" y="130.00" fill="#6d49ff" xml:space="preserve">╭────────────────────────────────────────────────────────────────────────╮</text>
<text x="97.60" y="148.00" fill="#6d49ff" xml:space="preserve">│</text>
<text x="710.80" y="148.00" fill="#6d49ff" xml:space="preserve">│</text>
<text x="97.60" y="166.00" fill="#6d49ff" xml:space="preserve">│</text>
<text x="122.80" y="166.00" fill="#888899" xml:space="preserve">  Status</text>
<text x="265.60" y="166.00" fill="#2ecc71" font-weight="bold" xml:space="preserve">✓ up to date</text>
<text x="710.80" y="166.00" fill="#6d49ff" xml:space="preserve">│</text>
<text x="97.60" y="184.00" fill="#6d49ff" xml:space="preserve">│</text>
<text x="122.80" y="184.00" fill="#888899" xml:space="preserve">  Account</text>
<text x="265.60" y="184.00" fill="#e8e8e8" xml:space="preserve">you@proton.me</text>
<text x="710.80" y="184.00" fill="#6d49ff" xml:space="preserve">│</text>
<text x="97.60" y="202.00" fill="#6d49ff" xml:space="preserve">│</text>
<text x="122.80" y="202.00" fill="#888899" xml:space="preserve">  Folder</text>
<text x="265.60" y="202.00" fill="#e8e8e8" xml:space="preserve">/home/you/pdrive</text>
<text x="710.80" y="202.00" fill="#6d49ff" xml:space="preserve">│</text>
<text x="97.60" y="220.00" fill="#6d49ff" xml:space="preserve">│</text>
<text x="710.80" y="220.00" fill="#6d49ff" xml:space="preserve">│</text>
<text x="97.60" y="238.00" fill="#6d49ff" xml:space="preserve">│</text>
<text x="122.80" y="238.00" fill="#888899" xml:space="preserve">  Synced</text>
<text x="265.60" y="238.00" fill="#e8e8e8" xml:space="preserve">1284 files, 96 folders  (41.0 GiB)</text>
<text x="710.80" y="238.00" fill="#6d49ff" xml:space="preserve">│</text>
<text x="97.60" y="256.00" fill="#6d49ff" xml:space="preserve">│</text>
<text x="122.80" y="256.00" fill="#888899" xml:space="preserve">  Drive storage</text>
<text x="265.60" y="256.00" fill="#2ecc71" xml:space="preserve">█</text>
<text x="274.00" y="256.00" fill="#3c3c5c" xml:space="preserve">░░░░░░░░░░░░░░░░░░░</text>
<text x="433.60" y="256.00" fill="#e8e8e8" xml:space="preserve">  47.0 GiB of 500.0 GiB (9.4%)</text>
<text x="710.80" y="256.00" fill="#6d49ff" xml:space="preserve">│</text>
<text x="97.60" y="274.00" fill="#6d49ff" xml:space="preserve">│</text>
<text x="710.80" y="274.00" fill="#6d49ff" xml:space="preserve">│</text>
<text x="97.60" y="292.00" fill="#6d49ff" xml:space="preserve">│</text>
<text x="122.80" y="292.00" fill="#888899" xml:space="preserve">  New files</text>
<text x="265.60" y="292.00" fill="#2ecc71" font-weight="bold" xml:space="preserve">as soon as you open the folder</text>
<text x="710.80" y="292.00" fill="#6d49ff" xml:space="preserve">│</text>
<text x="97.60" y="310.00" fill="#6d49ff" xml:space="preserve">│</text>
<text x="122.80" y="310.00" fill="#888899" xml:space="preserve">  Last sync</text>
<text x="265.60" y="310.00" fill="#888899" xml:space="preserve">19s ago</text>
<text x="710.80" y="310.00" fill="#6d49ff" xml:space="preserve">│</text>
<text x="97.60" y="328.00" fill="#6d49ff" xml:space="preserve">│</text>
<text x="122.80" y="328.00" fill="#888899" xml:space="preserve">  Running for</text>
<text x="265.60" y="328.00" fill="#888899" xml:space="preserve">3h12m</text>
<text x="710.80" y="328.00" fill="#6d49ff" xml:space="preserve">│</text>
<text x="97.60" y="346.00" fill="#6d49ff" xml:space="preserve">│</text>
<text x="710.80" y="346.00" fill="#6d49ff" xml:space="preserve">│</text>
<text x="97.60" y="364.00" fill="#6d49ff" xml:space="preserve">│</text>
<text x="122.80" y="364.00" fill="#888899" xml:space="preserve">s: sync  p: pause/resume  r: refresh  1-4: tabs  q: quit</text>
<text x="710.80" y="364.00" fill="#6d49ff" xml:space="preserve">│</text>
<text x="97.60" y="382.00" fill="#6d49ff" xml:space="preserve">│</text>
<text x="710.80" y="382.00" fill="#6d49ff" xml:space="preserve">│</text>
<text x="97.60" y="400.00" fill="#6d49ff" xml:space="preserve">╰────────────────────────────────────────────────────────────────────────╯</text>
</svg>
