<svg xmlns="http://www.w3.org/2000/svg" width="817" height="308" viewBox="0 0 817 308" font-family="JetBrainsMono Nerd Font, JetBrains Mono, monospace" font-size="14.0">
<rect x="0" y="0" width="817" height="308" rx="10" fill="#14141f"/>
<rect x="0" y="0" width="817" height="28" rx="10" fill="#1d1d2b"/>
<rect x="0" y="10" width="817" height="18" fill="#1d1d2b"/>
<circle cx="18.0" cy="14.0" r="5" fill="#ff5f57"/>
<circle cx="36.0" cy="14.0" r="5" fill="#febc2e"/>
<circle cx="54.0" cy="14.0" r="5" fill="#28c840"/>
<text x="408.4" y="18.0" fill="#8a8a9a" font-size="12" text-anchor="middle">pdrive — sign in</text>
<text x="97.60" y="58.00" fill="#6d49ff" xml:space="preserve">╭────────────────────────────────────────────────────────────────────────╮</text>
<text x="97.60" y="76.00" fill="#6d49ff" xml:space="preserve">│</text>
<text x="710.80" y="76.00" fill="#6d49ff" xml:space="preserve">│</text>
<text x="97.60" y="94.00" fill="#6d49ff" xml:space="preserve">│</text>
<text x="122.80" y="94.00" fill="#6d49ff" font-weight="bold" xml:space="preserve">pDrive</text>
<text x="190.00" y="94.00" fill="#888899" xml:space="preserve">Proton Drive for Linux</text>
<text x="710.80" y="94.00" fill="#6d49ff" xml:space="preserve">│</text>
<text x="97.60" y="112.00" fill="#6d49ff" xml:space="preserve">│</text>
<text x="710.80" y="112.00" fill="#6d49ff" xml:space="preserve">│</text>
<text x="97.60" y="130.00" fill="#6d49ff" xml:space="preserve">│</text>
<text x="122.80" y="130.00" fill="#f39c12" xml:space="preserve">This is a third-party application</text>
<text x="710.80" y="130.00" fill="#6d49ff" xml:space="preserve">│</text>
<text x="97.60" y="148.00" fill="#6d49ff" xml:space="preserve">│</text>
<text x="122.80" y="148.00" fill="#f39c12" xml:space="preserve">not officially supported by Proton.</text>
<text x="710.80" y="148.00" fill="#6d49ff" xml:space="preserve">│</text>
<text x="97.60" y="166.00" fill="#6d49ff" xml:space="preserve">│</text>
<text x="710.80" y="166.00" fill="#6d49ff" xml:space="preserve">│</text>
<text x="97.60" y="184.00" fill="#6d49ff" xml:space="preserve">│</text>
<text x="122.80" y="184.00" fill="#888899" xml:space="preserve">  Email</text>
<text x="181.60" y="184.00" fill="#e8e8e8" xml:space="preserve">          &gt; you@proton.me</text>
<text x="710.80" y="184.00" fill="#6d49ff" xml:space="preserve">│</text>
<text x="97.60" y="202.00" fill="#6d49ff" xml:space="preserve">│</text>
<text x="710.80" y="202.00" fill="#6d49ff" xml:space="preserve">│</text>
<text x="97.60" y="220.00" fill="#6d49ff" xml:space="preserve">│</text>
<text x="122.80" y="220.00" fill="#888899" xml:space="preserve">enter: continue  tab: switch field  esc: clear  ctrl+c: quit</text>
<text x="710.80" y="220.00" fill="#6d49ff" xml:space="preserve">│</text>
<text x="97.60" y="238.00" fill="#6d49ff" xml:space="preserve">│</text>
<text x="710.80" y="238.00" fill="#6d49ff" xml:space="preserve">│</text>
<text x="97.60" y="256.00" fill="#6d49ff" xml:space="preserve">╰────────────────────────────────────────────────────────────────────────╯</text>
</svg>
